<svg width="0" height="0" class="hidden">
  <symbol xmlns="http://www.w3.org/2000/svg" fill="none" viewBox="0 0 18 17" id="menu">
    <path fill="currentColor" d="M0 .5h18v2H0v-2Zm0 7h18v2H0v-2Zm0 7h18v2H0v-2Z"></path>
  </symbol>
  <symbol xmlns="http://www.w3.org/2000/svg" fill="none" viewBox="0 0 14 13" id="close">
    <path fill="currentColor" d="m7 5.086 4.95-4.95 1.414 1.414-4.95 4.95 4.95 4.95-1.414 1.414L7 7.914l-4.95 4.95L.636 11.45l4.95-4.95-4.95-4.95L2.05.136 7 5.086Z"></path>
  </symbol>

  <symbol xmlns="http://www.w3.org/2000/svg" fill="none" viewBox="0 0 5 9" id="arrow-down">
    <path fill="currentColor" d="M5 6 2.5 8.5 0 6h2V0h1v6h2Z"></path>
    <path fill="currentColor" d="M5 6 2.5 8.5 0 6h2V0h1v6h2Z"></path>
  </symbol>
  <symbol xmlns="http://www.w3.org/2000/svg" fill="none" viewBox="0 0 5 9" id="arrow-up">
    <path fill="currentColor" d="M5 2.5H3v6H2v-6H0L2.5 0 5 2.5Z"></path>
    <path fill="currentColor" d="M5 2.5H3v6H2v-6H0L2.5 0 5 2.5Z"></path>
  </symbol>
  <symbol xmlns="http://www.w3.org/2000/svg" fill="none" viewBox="0 0 10 10" id="plus">
    <path fill="currentColor" d="M4 4V0h1.333v4h4v1.333h-4v4H4v-4H0V4h4Z"></path>
  </symbol>
  <symbol xmlns="http://www.w3.org/2000/svg" fill="none" viewBox="0 0 16 16" id="download">
    <g clip-path="url(#a)">
      <path fill="currentColor" d="M8.667 8h2L8 10.666 5.333 8h2V5.333h1.334V8ZM10 2.666H3.333v10.667h9.334v-8H10V2.666Zm-8-.672c0-.365.298-.661.666-.661h8L14 4.666v9.329a.666.666 0 0 1-.662.671H2.662A.666.666 0 0 1 2 14.005V1.995Z"></path>
    </g>
    <defs>
      <clipPath id="a">
        <path fill="#fff" d="M0 0h16v16H0z"></path>
      </clipPath>
    </defs>
  </symbol>
  <symbol xmlns="http://www.w3.org/2000/svg" fill="none" viewBox="0 0 18 18" id="instagram">
    <path fill="currentColor" d="M9.925 0c1.013.002 1.526.007 1.97.02l.174.006c.202.007.401.016.641.027.958.045 1.611.196 2.185.419a4.385 4.385 0 0 1 1.594 1.038c.5.5.809 1.003 1.038 1.594.222.574.374 1.228.419 2.185.01.24.02.44.026.641l.006.175c.013.443.02.957.021 1.97v.67L18 9v.924a70.97 70.97 0 0 1-.02 1.97l-.007.175a57.12 57.12 0 0 1-.027.641c-.044.958-.197 1.611-.419 2.185a4.396 4.396 0 0 1-1.038 1.595c-.5.499-1.003.808-1.594 1.038-.574.222-1.227.373-2.185.418-.24.01-.44.02-.64.026l-.175.006c-.444.013-.957.02-1.97.021L9.254 18H8.075a70.574 70.574 0 0 1-1.97-.02l-.175-.007c-.202-.007-.4-.016-.64-.027-.958-.044-1.611-.197-2.186-.419A4.4 4.4 0 0 1 1.51 16.49c-.5-.5-.809-1.003-1.038-1.594-.223-.574-.374-1.227-.419-2.185-.01-.24-.019-.439-.026-.64l-.006-.176a71.14 71.14 0 0 1-.02-1.97L0 8.075a70.94 70.94 0 0 1 .02-1.97l.006-.174c.007-.202.016-.4.027-.64.045-.96.196-1.612.419-2.186A4.391 4.391 0 0 1 1.51 1.51c.5-.5 1.003-.81 1.594-1.038C3.678.249 4.331.098 5.29.053c.24-.01.44-.019.641-.026L6.105.02c.443-.013.957-.019 1.97-.02h1.85ZM9 4.5a4.5 4.5 0 1 0 0 9 4.5 4.5 0 0 0 0-9Zm0 1.8a2.7 2.7 0 1 1 0 5.4 2.7 2.7 0 0 1 0-5.4Zm4.725-3.15a1.126 1.126 0 1 0 .001 2.25 1.126 1.126 0 0 0-.001-2.25Z"></path>
  </symbol>
</svg>
