<svg xmlns="http://www.w3.org/2000/svg" width="150" height="87" fill="none"><path fill="#181818" d="M17.528 27.98c-1.964 0-3.574-1.59-3.574-4.485 0-2.422 1.151-3.806 2.553-3.955l2.807 2.093c.563-.124 1.277-.833 1.277-1.538 0-.705-1.277-1.614-3.522-1.614-3.47 0-6.204 2.417-6.204 6.197 0 3.352 2.271 5.291 5.027 5.291 2.246 0 3.777-1.208 4.75-2.396l-.484-.807c-.614.705-1.428 1.209-2.63 1.209v.004ZM33.301 21.803c0-2.165-1.02-3.352-3.115-3.352-1.406 0-2.73.781-3.854 1.486v-5.493l.052-2.417h-.152l-4.594 1.26v.15l1.635.905v13.962l-1.428 1.209v.149h5.845v-.15l-1.354-1.208v-7.257a2.68 2.68 0 0 1 1.89-.781c1.25 0 2.017.807 2.017 1.888v6.15l-1.354 1.209v.149h5.896v-.15l-1.48-1.208v-6.5h-.004ZM37.36 25.51a2.205 2.205 0 0 0-1.329 2.042c0 1.46 1.151 2.417 2.73 2.417a4.882 4.882 0 0 0 2.527-.679l.917-.53c.307.68 1.047 1.286 2.349 1.363l2.297-1.234v-.026l-2.016-1.337.178-6.376c.052-1.563-.97-2.695-3.267-2.695-1.48 0-5.49 1.64-5.49 3.075 0 .278.203.606.407.606l2.068-.653.151-1.183c.178-.103.589-.252 1.151-.252 1.276 0 2.068.555 2.042 1.913l-.026 1.99c-2.12.53-3.803 1.158-4.698 1.564l.008-.005Zm4.62 2.392c-.203.201-.896.581-1.48.581-.969 0-1.583-.628-1.583-1.46 0-.756.333-1.26 2.042-1.764.588-.176.87-.278 1.073-.355l-.052 2.998ZM48.642 26.745l-.104 2.72c.918.026 2.527.479 4.647.479 3.932 0 6.714-2.217 6.714-6.227 0-3.353-2.22-5.215-4.772-5.215-1.099 0-2.094.53-3.01.957l-.433.2v-5.291l.052-2.345h-.152l-4.495 1.26v.15l1.584.905-.026 12.399-.005.008Zm3.037-6.026c.307-.201.896-.581 1.683-.581 1.89 0 3.24 1.84 3.24 4.484s-1.124 4.284-2.833 4.284c-1.532 0-2.094-1.157-2.094-3.276v-4.916l.004.005ZM62.78 28.308l-1.453 1.209v.15h5.996v-.15l-1.48-1.209V14.444l.052-2.417h-.151l-4.599 1.26v.15l1.635.91v13.961ZM69.953 25.51a2.205 2.205 0 0 0-1.328 2.042c0 1.46 1.151 2.417 2.73 2.417a4.882 4.882 0 0 0 2.527-.679l.917-.53c.307.68 1.047 1.286 2.349 1.363l2.297-1.234v-.026l-2.016-1.337.178-6.376c.052-1.563-.97-2.695-3.267-2.695-1.48 0-5.49 1.64-5.49 3.075 0 .278.204.606.407.606l2.068-.653.151-1.183c.178-.103.589-.252 1.151-.252 1.276 0 2.068.555 2.042 1.913l-.026 1.99c-2.12.53-3.803 1.158-4.698 1.564l.008-.005Zm4.62 2.392c-.202.201-.895.581-1.479.581-.969 0-1.583-.628-1.583-1.46 0-.756.333-1.26 2.042-1.764.588-.176.87-.278 1.073-.355l-.052 2.998ZM85.662 14.872c.995 0 1.683-.73 1.683-1.636 0-.906-.688-1.636-1.683-1.636-.995 0-1.683.73-1.683 1.636 0 .905.688 1.636 1.683 1.636ZM82.763 20.518c.078 0 .178.102.204.15l-1.302 4.915c-.433 1.636-.589 2.396-.589 2.947 0 .859.385 1.337 1.225 1.337 1.505 0 3.495-1.713 4.568-3.528l-.333-.277c-.714.653-1.635 1.435-2.297 1.84-.078 0-.204-.102-.23-.2.178-.906.459-2.016.944-3.883l.765-2.998c.104-.401.23-.858.23-1.234 0-.73-.563-1.136-1.354-1.136-1.71 0-3.574 2.216-4.288 3.1l.307.376c.433-.354 1.636-1.208 2.146-1.41h.004ZM71.84 35.748c.333 0 .791.226 2.73 1.589.74-.124 1.453-1.034 1.479-1.512-.255-.607-1.25-1.41-2.834-1.41-3.88 0-6.204 3.857-6.255 7.21l-1.84 1.388v.15h1.84v7.786l-1.428 1.208v.15h6.866v-.15l-2.376-1.208-.025-7.786h2.781l.662-1.487h-3.448v-.858c0-3.934.74-5.066 1.839-5.066l.008-.004ZM83.335 44.341c0 1.512.688 2.37 2.145 3.2l.792.452c1.328.756 2.194 1.06 2.194 2.093 0 .905-.714 1.537-1.891 1.537-.844 0-1.406-.303-1.76-.606-.433-.555-.74-1.363-.97-2.067l-.844.025.204 2.824c.536.277 1.709.781 3.422.781 2.86 0 4.542-1.435 4.542-3.476 0-1.389-.662-2.166-2.5-3.174l-.917-.504c-1.199-.653-1.787-1.11-1.787-2.016 0-.704.536-1.336 1.635-1.336.662 0 1.1.175 1.428.427.459.452.792 1.234 1.02 1.939h.767l-.104-2.772c-.588-.252-1.558-.556-2.938-.556-2.5 0-4.443 1.235-4.443 3.225l.005.004ZM102.837 50.21l-.484-.807c-.614.704-1.428 1.208-2.63 1.208-1.965 0-3.574-1.589-3.574-4.484 0-2.422 1.15-3.806 2.552-3.955l2.808 2.093c.563-.124 1.277-.833 1.277-1.538 0-.705-1.277-1.614-3.522-1.614-3.47 0-6.204 2.417-6.204 6.197 0 3.352 2.271 5.291 5.027 5.291 2.246 0 3.777-1.208 4.75-2.395v.004ZM105.464 50.944l-1.428 1.21v.149h5.845v-.15l-1.354-1.209v-7.256a2.68 2.68 0 0 1 1.89-.782c1.25 0 2.016.808 2.016 1.888v6.15l-1.354 1.21v.149h5.897v-.15l-1.48-1.209v-6.5c0-2.165-1.021-3.353-3.115-3.353-1.406 0-2.73.782-3.854 1.487v-5.493l.051-2.417h-.151l-4.594 1.26v.15l1.635.905v13.961h-.004ZM123.383 52.606c2.297 0 3.829-1.136 4.928-2.495l-.459-.832c-.588.632-1.406 1.336-2.912 1.336-2.375 0-3.625-2.092-3.625-4.437 0-.175 0-.401.026-.504l6.636.077.308-.278v-.2c0-2.623-1.506-4.16-4.236-4.16-3.422 0-5.719 2.746-5.719 6.099 0 3.352 2.297 5.394 5.053 5.394Zm.203-10.486c1.251 0 1.865 1.009 1.865 2.546h-4.032c.125-1.388.817-2.545 2.172-2.545h-.005ZM129.816 52.153v.15h6.84v-.15l-2.323-1.311v-6.249c.052-.453.385-1.435 1.38-1.435.766 0 1.479.705 1.89.957h.178c.484-.303 1.172-1.183 1.354-1.738-.178-.705-.896-1.26-1.709-1.26-1.302 0-2.349 1.136-3.089 1.939v-2.067h-.151l-4.517 1.409v.15l1.609 1.007v7.385c-.484.401-.969.833-1.453 1.209l-.009.004ZM81.258 48.975l-.333-.277c-.714.653-1.635 1.435-2.297 1.84-.078 0-.204-.102-.23-.2.178-.906.459-2.016.944-3.883l.765-2.998c.104-.401.23-.858.23-1.234 0-.73-.563-1.136-1.355-1.136-1.709 0-3.573 2.217-4.287 3.1l.307.377c.433-.355 1.636-1.21 2.146-1.41.078 0 .177.103.203.15l-1.302 4.915c-.432 1.636-.588 2.396-.588 2.947 0 .859.385 1.337 1.224 1.337 1.506 0 3.496-1.712 4.569-3.528h.004ZM78.36 35.872c0 .906.687 1.636 1.682 1.636.995 0 1.683-.73 1.683-1.636 0-.905-.688-1.636-1.683-1.636-.995 0-1.683.73-1.683 1.636ZM32.367 66.422c.052-1.563-.97-2.695-3.267-2.695-1.48 0-5.49 1.64-5.49 3.075 0 .278.204.607.407.607l2.068-.654.151-1.183c.178-.102.589-.252 1.151-.252 1.276 0 2.068.556 2.042 1.914l-.026 1.99c-2.12.53-3.803 1.157-4.698 1.563a2.205 2.205 0 0 0-1.328 2.042c0 1.46 1.15 2.417 2.73 2.417a4.882 4.882 0 0 0 2.526-.679l.917-.53c.307.68 1.047 1.286 2.35 1.363l2.297-1.234v-.026l-2.016-1.337.177-6.376.009-.005Zm-3.037 6.753c-.204.2-.896.58-1.48.58-.969 0-1.583-.627-1.583-1.46 0-.756.333-1.26 2.042-1.764.588-.175.87-.278 1.073-.355l-.052 2.999ZM42.603 63.749c-1.303 0-2.35 1.136-3.09 1.939V63.62h-.15l-4.517 1.409v.15l1.61 1.007v7.385c-.486.401-.97.833-1.455 1.209v.15h6.84v-.15l-2.323-1.312v-6.248c.052-.453.385-1.435 1.38-1.435.766 0 1.48.705 1.89.957h.178c.485-.303 1.172-1.183 1.354-1.739-.177-.704-.895-1.26-1.709-1.26l-.008.005ZM51.104 73.252c-1.964 0-3.574-1.59-3.574-4.485 0-2.422 1.151-3.805 2.553-3.955l2.808 2.093c.562-.124 1.276-.833 1.276-1.538 0-.704-1.276-1.614-3.522-1.614-3.47 0-6.204 2.417-6.204 6.197 0 3.353 2.272 5.292 5.027 5.292 2.246 0 3.777-1.209 4.75-2.396l-.484-.807c-.614.704-1.428 1.208-2.63 1.208v.005ZM66.445 67.076c0-2.165-1.021-3.353-3.115-3.353-1.406 0-2.73.782-3.855 1.486v-5.492l.052-2.417h-.151l-4.595 1.26v.149l1.636.905v13.962l-1.428 1.209v.15h5.845v-.15l-1.354-1.209V66.32a2.68 2.68 0 0 1 1.89-.782c1.25 0 2.016.808 2.016 1.888v6.15l-1.354 1.209v.15h5.897v-.15l-1.48-1.209v-6.5h-.004ZM85.078 65.79l.662-1.486h-4.365l.052-1.99h-.152l-4.417 3.327v.15h1.48c-.052 2.395-.126 4.988-.126 6.073 0 1.99.995 3.352 3.344 3.352 1.965 0 3.24-.956 3.881-1.687l-.23-.73c-.306.2-1.02.68-2.015.68-1.276 0-1.839-.782-1.839-2.043l.052-5.646h3.677-.004ZM93.038 73.252c-2.375 0-3.625-2.093-3.625-4.438 0-.175 0-.401.026-.504l6.636.077.307-.278v-.2c0-2.623-1.505-4.16-4.235-4.16-3.422 0-5.72 2.746-5.72 6.099s2.298 5.394 5.054 5.394c2.297 0 3.829-1.136 4.927-2.494l-.458-.833c-.588.632-1.406 1.337-2.912 1.337Zm-1.35-8.495c1.25 0 1.865 1.008 1.865 2.545h-4.032c.126-1.388.818-2.545 2.172-2.545h-.004ZM104.754 73.252c-1.964 0-3.573-1.59-3.573-4.485 0-2.422 1.15-3.805 2.552-3.955l2.808 2.093c.562-.124 1.276-.833 1.276-1.538 0-.704-1.276-1.614-3.522-1.614-3.469 0-6.203 2.417-6.203 6.197 0 3.353 2.271 5.292 5.027 5.292 2.245 0 3.777-1.209 4.75-2.396l-.485-.807c-.614.704-1.427 1.208-2.63 1.208v.005ZM117.162 65.79l.661-1.486h-4.365l.052-1.99h-.151l-4.417 3.327v.15h1.479c-.052 2.395-.125 4.988-.125 6.073 0 1.99.995 3.352 3.344 3.352 1.964 0 3.24-.956 3.881-1.687l-.23-.73c-.307.2-1.021.68-2.016.68-1.276 0-1.838-.782-1.838-2.043l.052-5.646h3.677-.004ZM125.122 73.252c-2.375 0-3.625-2.093-3.625-4.438 0-.175 0-.401.026-.504l6.636.077.307-.278v-.2c0-2.623-1.505-4.16-4.235-4.16-3.422 0-5.72 2.746-5.72 6.099s2.298 5.394 5.054 5.394c2.297 0 3.828-1.136 4.927-2.494l-.458-.833c-.589.632-1.406 1.337-2.912 1.337Zm-1.35-8.495c1.25 0 1.865 1.008 1.865 2.545h-4.032c.125-1.388.817-2.545 2.172-2.545h-.005ZM135.972 68.562l-.917-.504c-1.198-.653-1.787-1.11-1.787-2.016 0-.704.537-1.337 1.636-1.337.662 0 1.099.175 1.427.427.459.453.792 1.235 1.021 1.94h.766l-.104-2.772c-.588-.252-1.557-.556-2.937-.556-2.501 0-4.443 1.235-4.443 3.225 0 1.512.688 2.37 2.145 3.199l.792.453c1.328.756 2.194 1.059 2.194 2.093 0 .905-.714 1.537-1.891 1.537-.844 0-1.406-.303-1.761-.607-.432-.555-.74-1.362-.969-2.067l-.843.026.203 2.823c.536.278 1.709.782 3.422.782 2.86 0 4.543-1.435 4.543-3.477 0-1.388-.662-2.165-2.501-3.173l.004.004ZM74.41 56.868c-.996 0-1.683.73-1.683 1.636 0 .905.687 1.636 1.682 1.636.995 0 1.683-.73 1.683-1.636 0-.905-.688-1.636-1.683-1.636ZM72.995 73.175c-.078 0-.204-.103-.23-.2.178-.906.46-2.017.944-3.883l.765-2.998c.104-.402.23-.859.23-1.235 0-.73-.563-1.136-1.354-1.136-1.71 0-3.574 2.217-4.288 3.1l.307.377c.433-.355 1.636-1.209 2.146-1.41.078 0 .178.103.204.15l-1.303 4.916c-.432 1.636-.588 2.396-.588 2.947 0 .858.385 1.337 1.224 1.337 1.506 0 3.496-1.713 4.569-3.528l-.333-.278c-.714.653-1.636 1.435-2.297 1.84h.004ZM91.918 28.987c-.844 0-1.406-.303-1.76-.606-.433-.555-.74-1.363-.97-2.067l-.844.025.204 2.823c.536.278 1.709.782 3.422.782 2.86 0 4.543-1.435 4.543-3.477 0-1.388-.663-2.165-2.501-3.173l-.917-.504c-1.199-.653-1.787-1.11-1.787-2.016 0-.705.536-1.337 1.635-1.337.662 0 1.1.175 1.428.427.459.453.792 1.235 1.021 1.94h.766l-.104-2.772c-.588-.252-1.558-.556-2.938-.556-2.5 0-4.443 1.235-4.443 3.225 0 1.512.688 2.37 2.146 3.199l.792.453c1.328.756 2.193 1.059 2.193 2.092 0 .906-.714 1.538-1.89 1.538l.004.004Z"/></svg>
